<?xml version="1.0" encoding="UTF-8"?>
<svg xmlns="http://www.w3.org/2000/svg" xmlns:xlink="http://www.w3.org/1999/xlink" width="2448pt" height="3168pt" viewBox="0 0 2448 3168" version="1.2">
<g id="surface5">
<path style=" stroke:none;fill-rule:nonzero;fill:rgb(0%,0%,0%);fill-opacity:1;" d="M 212.878906 521.761719 L 218.878906 521.761719 L 218.878906 515.761719 L 212.878906 515.761719 Z "/>
<path style=" stroke:none;fill-rule:nonzero;fill:rgb(0%,0%,0%);fill-opacity:1;" d="M 212.878906 521.761719 L 1190.878906 521.761719 L 1190.878906 515.761719 L 212.878906 515.761719 Z "/>
<path style=" stroke:none;fill-rule:nonzero;fill:rgb(0%,0%,0%);fill-opacity:1;" d="M 1184.878906 521.761719 L 1190.878906 521.761719 L 1190.878906 515.761719 L 1184.878906 515.761719 Z "/>
<path style=" stroke:none;fill-rule:nonzero;fill:rgb(0%,0%,0%);fill-opacity:1;" d="M 212.878906 585.839844 L 218.878906 585.839844 L 218.878906 521.761719 L 212.878906 521.761719 Z "/>
<path style=" stroke:none;fill-rule:nonzero;fill:rgb(0%,0%,0%);fill-opacity:1;" d="M 508.078125 585.839844 L 514.078125 585.839844 L 514.078125 521.761719 L 508.078125 521.761719 Z "/>
<path style=" stroke:none;fill-rule:nonzero;fill:rgb(0%,0%,0%);fill-opacity:1;" d="M 1184.878906 585.839844 L 1190.878906 585.839844 L 1190.878906 521.761719 L 1184.878906 521.761719 Z "/>
<path style=" stroke:none;fill-rule:nonzero;fill:rgb(0%,0%,0%);fill-opacity:1;" d="M 212.878906 591.839844 L 1190.878906 591.839844 L 1190.878906 585.839844 L 212.878906 585.839844 Z "/>
<path style=" stroke:none;fill-rule:nonzero;fill:rgb(0%,0%,0%);fill-opacity:1;" d="M 212.878906 826.558594 L 218.878906 826.558594 L 218.878906 591.839844 L 212.878906 591.839844 Z "/>
<path style=" stroke:none;fill-rule:nonzero;fill:rgb(0%,0%,0%);fill-opacity:1;" d="M 508.078125 826.558594 L 514.078125 826.558594 L 514.078125 591.839844 L 508.078125 591.839844 Z "/>
<path style=" stroke:none;fill-rule:nonzero;fill:rgb(0%,0%,0%);fill-opacity:1;" d="M 1184.878906 826.558594 L 1190.878906 826.558594 L 1190.878906 591.839844 L 1184.878906 591.839844 Z "/>
<path style=" stroke:none;fill-rule:nonzero;fill:rgb(0%,0%,0%);fill-opacity:1;" d="M 212.878906 832.558594 L 1190.878906 832.558594 L 1190.878906 826.558594 L 212.878906 826.558594 Z "/>
<path style=" stroke:none;fill-rule:nonzero;fill:rgb(0%,0%,0%);fill-opacity:1;" d="M 212.878906 1115.039062 L 218.878906 1115.039062 L 218.878906 832.558594 L 212.878906 832.558594 Z "/>
<path style=" stroke:none;fill-rule:nonzero;fill:rgb(0%,0%,0%);fill-opacity:1;" d="M 508.078125 1115.039062 L 514.078125 1115.039062 L 514.078125 832.558594 L 508.078125 832.558594 Z "/>
<path style=" stroke:none;fill-rule:nonzero;fill:rgb(0%,0%,0%);fill-opacity:1;" d="M 1184.878906 1115.039062 L 1190.878906 1115.039062 L 1190.878906 832.558594 L 1184.878906 832.558594 Z "/>
<path style=" stroke:none;fill-rule:nonzero;fill:rgb(0%,0%,0%);fill-opacity:1;" d="M 212.878906 1121.039062 L 1190.878906 1121.039062 L 1190.878906 1115.039062 L 212.878906 1115.039062 Z "/>
<path style=" stroke:none;fill-rule:nonzero;fill:rgb(0%,0%,0%);fill-opacity:1;" d="M 212.878906 1355.519531 L 218.878906 1355.519531 L 218.878906 1121.039062 L 212.878906 1121.039062 Z "/>
<path style=" stroke:none;fill-rule:nonzero;fill:rgb(0%,0%,0%);fill-opacity:1;" d="M 508.078125 1355.519531 L 514.078125 1355.519531 L 514.078125 1121.039062 L 508.078125 1121.039062 Z "/>
<path style=" stroke:none;fill-rule:nonzero;fill:rgb(0%,0%,0%);fill-opacity:1;" d="M 1184.878906 1355.519531 L 1190.878906 1355.519531 L 1190.878906 1121.039062 L 1184.878906 1121.039062 Z "/>
<path style=" stroke:none;fill-rule:nonzero;fill:rgb(0%,0%,0%);fill-opacity:1;" d="M 212.878906 1361.519531 L 1190.878906 1361.519531 L 1190.878906 1355.519531 L 212.878906 1355.519531 Z "/>
<path style=" stroke:none;fill-rule:nonzero;fill:rgb(0%,0%,0%);fill-opacity:1;" d="M 212.878906 1608 L 218.878906 1608 L 218.878906 1361.519531 L 212.878906 1361.519531 Z "/>
<path style=" stroke:none;fill-rule:nonzero;fill:rgb(0%,0%,0%);fill-opacity:1;" d="M 508.078125 1608 L 514.078125 1608 L 514.078125 1361.519531 L 508.078125 1361.519531 Z "/>
<path style=" stroke:none;fill-rule:nonzero;fill:rgb(0%,0%,0%);fill-opacity:1;" d="M 1184.878906 1608 L 1190.878906 1608 L 1190.878906 1361.519531 L 1184.878906 1361.519531 Z "/>
<path style=" stroke:none;fill-rule:nonzero;fill:rgb(0%,0%,0%);fill-opacity:1;" d="M 212.878906 1614 L 1190.878906 1614 L 1190.878906 1608 L 212.878906 1608 Z "/>
<path style=" stroke:none;fill-rule:nonzero;fill:rgb(0%,0%,0%);fill-opacity:1;" d="M 212.878906 1785.601562 L 218.878906 1785.601562 L 218.878906 1614 L 212.878906 1614 Z "/>
<path style=" stroke:none;fill-rule:nonzero;fill:rgb(0%,0%,0%);fill-opacity:1;" d="M 508.078125 1785.601562 L 514.078125 1785.601562 L 514.078125 1614 L 508.078125 1614 Z "/>
<path style=" stroke:none;fill-rule:nonzero;fill:rgb(0%,0%,0%);fill-opacity:1;" d="M 1184.878906 1785.601562 L 1190.878906 1785.601562 L 1190.878906 1614 L 1184.878906 1614 Z "/>
<path style=" stroke:none;fill-rule:nonzero;fill:rgb(0%,0%,0%);fill-opacity:1;" d="M 212.878906 1791.601562 L 1190.878906 1791.601562 L 1190.878906 1785.601562 L 212.878906 1785.601562 Z "/>
<path style=" stroke:none;fill-rule:nonzero;fill:rgb(0%,0%,0%);fill-opacity:1;" d="M 212.878906 2013.121094 L 218.878906 2013.121094 L 218.878906 1791.601562 L 212.878906 1791.601562 Z "/>
<path style=" stroke:none;fill-rule:nonzero;fill:rgb(0%,0%,0%);fill-opacity:1;" d="M 508.078125 2013.121094 L 514.078125 2013.121094 L 514.078125 1791.601562 L 508.078125 1791.601562 Z "/>
<path style=" stroke:none;fill-rule:nonzero;fill:rgb(0%,0%,0%);fill-opacity:1;" d="M 1184.878906 2013.121094 L 1190.878906 2013.121094 L 1190.878906 1791.601562 L 1184.878906 1791.601562 Z "/>
<path style=" stroke:none;fill-rule:nonzero;fill:rgb(0%,0%,0%);fill-opacity:1;" d="M 212.878906 2019.121094 L 1190.878906 2019.121094 L 1190.878906 2013.121094 L 212.878906 2013.121094 Z "/>
<path style=" stroke:none;fill-rule:nonzero;fill:rgb(0%,0%,0%);fill-opacity:1;" d="M 212.878906 2162.398438 L 218.878906 2162.398438 L 218.878906 2019.121094 L 212.878906 2019.121094 Z "/>
<path style=" stroke:none;fill-rule:nonzero;fill:rgb(0%,0%,0%);fill-opacity:1;" d="M 212.878906 2162.398438 L 508.078125 2162.398438 L 508.078125 2156.398438 L 212.878906 2156.398438 Z "/>
<path style=" stroke:none;fill-rule:nonzero;fill:rgb(0%,0%,0%);fill-opacity:1;" d="M 508.078125 2162.398438 L 514.078125 2162.398438 L 514.078125 2019.121094 L 508.078125 2019.121094 Z "/>
<path style=" stroke:none;fill-rule:nonzero;fill:rgb(0%,0%,0%);fill-opacity:1;" d="M 514.078125 2162.398438 L 1184.878906 2162.398438 L 1184.878906 2156.398438 L 514.078125 2156.398438 Z "/>
<path style=" stroke:none;fill-rule:nonzero;fill:rgb(0%,0%,0%);fill-opacity:1;" d="M 1184.878906 2162.398438 L 1190.878906 2162.398438 L 1190.878906 2019.121094 L 1184.878906 2019.121094 Z "/>
<path style=" stroke:none;fill-rule:nonzero;fill:rgb(0%,0%,0%);fill-opacity:1;" d="M 1184.878906 2162.398438 L 1190.878906 2162.398438 L 1190.878906 2156.398438 L 1184.878906 2156.398438 Z "/>
</g>
</svg>
